<svg xmlns="http://www.w3.org/2000/svg" xmlns:xlink="http://www.w3.org/1999/xlink" width="8701" height="4263" viewBox="0 0 8701 4263">
  <defs>
    <clipPath id="clip-path">
      <rect id="Rectangle_404" data-name="Rectangle 404" width="8537.922" height="4008.855" fill="none"/>
    </clipPath>
    <clipPath id="clip-Artboard_7">
      <rect width="8701" height="4263"/>
    </clipPath>
  </defs>
  <g id="Artboard_7" data-name="Artboard – 7" clip-path="url(#clip-Artboard_7)">
    <rect width="8701" height="4263" fill="#fff"/>
    <g id="Group_464" data-name="Group 464" transform="translate(-1353 -113.608)">
      <g id="Group_329" data-name="Group 329" transform="translate(1425.499 224.937)" clip-path="url(#clip-path)">
        <g id="Group_328" data-name="Group 328" transform="translate(0 -0.001)">
          <g id="Group_327" data-name="Group 327" clip-path="url(#clip-path)">
            <path id="Path_97" data-name="Path 97" d="M3930.132,1511.06H3547.814a50.867,50.867,0,0,0-50.847,50.853v777.338q0,310.03-134.208,453.777-134.292,143.673-315.812,143.7-181.52,0-294.957-136.137-113.479-136.163-113.454-385.732V1559.6a50.838,50.838,0,0,0-50.855-50.853H2455.107c-5.593-58.653-13.336-116.971-24.125-162.719-2.125-9.151-4.581-18.251-7.029-27.353a130.671,130.671,0,0,0,47.328,18.107c36.706,6.309,57.162,28.075,169.952,23.741,106.325-4.141,168.832-54.7,233.222-118.079,93.461-91.978,140.084-221.856,138.632-385.972l-.091-9.295a46.7,46.7,0,0,0-45.984-47.289c-54.947-.674-525.1-60.629-591.847,375.571-58.025-141.821-132.574-258.84-162.379-310.126,1.394-170.233-45.751-311.09-142.5-418.045-85.333-94.433-253.251-209.96-568.387-221.807l-9.535-.434a58.558,58.558,0,0,0-62.021,54.85l-.967,11.847c-5.872,68.574-23.789,277.091,125.2,447.66,112.785,129.2,295.056,204.231,540.507,225.083,76.428,136.138,141.823,285.9,178.906,422.619,10.784,39.922,18.3,80.614,23.548,121.642h-92.175a50.838,50.838,0,0,0-50.855,50.853v885.5q0,518.138,219.309,722.3,219.375,204.206,612.636,204.23,259.77,0,425.033-154.388c32.556-30.387,85.478-7.61,85.478,36.887v21.237a50.866,50.866,0,0,0,50.847,50.853h382.318a50.878,50.878,0,0,0,50.905-50.853V1561.913a50.879,50.879,0,0,0-50.905-50.853" transform="translate(-1425.505 -224.931)" fill="#2c2d49"/>
            <rect id="Rectangle_402" data-name="Rectangle 402" width="1853.038" height="1330.151" transform="translate(-33.519 -51.036)" fill="none"/>
            <path id="Path_98" data-name="Path 98" d="M3360.528,310.872h-393.68A50.861,50.861,0,0,0,2916,361.725c0,42.329-49.27,66.985-82.009,40.21Q2648.7,250.387,2379.009,250.388q-272.256,0-472.7,115.334-200.379,115.358-310.077,329-109.657,213.6-109.653,497.262,0,283.593,115.329,495.383,115.37,211.718,319.563,325.2,204.139,113.481,465.1,113.456,263.5,0,447.564-148.947c32.8-26.583,81.868-1.925,81.868,40.306v36.792q0,192.867-79.412,317.639-117.237,200.451-415.979,200.426-223.135,0-359.239-132.333-64.146-61.037-103.586-146.828a50.567,50.567,0,0,0-62.6-26.534l-329.4,114.708c-27.594,9.584-41.079,40.356-30.341,67.564q77.3,195.828,208.284,320.1,268.484,264.667,729.857,264.666,215.542,0,397.049-85.044,181.52-85.092,310.069-236.351,109.657-132.333,170.184-300.64,60.461-168.3,60.49-357.367V361.725a50.868,50.868,0,0,0-50.855-50.853M2777.983,1553.11q-130.458,145.551-334.683,145.577-207.973,0-346.012-143.651-138.038-143.748-138.009-363.05,0-215.548,138.009-361.125Q2235.34,685.238,2443.3,685.238q189.114,0,327.123,132.333,138.039,132.406,141.819,359.295-3.747,230.644-134.259,376.244" transform="translate(1454.632 975.257)" fill="#2c2d49"/>
            <path id="Path_99" data-name="Path 99" d="M2592.489,252.287q-20.664-.722-45.792-.722-292.983,0-439.042,117.549c-33.378,26.823-82.831,3.611-82.831-39.247v-23.6a50.879,50.879,0,0,0-50.855-50.9H1587.95a50.785,50.785,0,0,0-50.8,51l3.56,1713.4a50.849,50.849,0,0,0,50.855,50.758h386.161a50.871,50.871,0,0,0,50.9-50.853V1180.354c0-1.492.1-3.082.2-4.575q15.6-217.785,139.7-358.811,124.819-141.8,317.688-141.821a533.343,533.343,0,0,1,93.992,8.475c31.693,5.683,61.021-17.625,61.021-49.793V303.092c0-27.256-21.436-49.937-48.739-50.8" transform="translate(3839.516 1030.76)" fill="#2c2d49"/>
            <path id="Path_100" data-name="Path 100" d="M3294.381,738.336Q3171.43,515.133,2959.689,382.8,2747.9,250.465,2494.6,250.466q-253.4,0-467.066,132.333Q1813.87,515.205,1689.089,738.336q-124.819,223.062-124.773,484.02,0,253.325,126.657,470.775,153.636,263.655,435.041,396.663a806.425,806.425,0,0,0,269.338,73.341q311.692,28.678,564.337-120.2,211.794-124.747,334.691-342.246,122.865-217.424,122.9-478.335,0-260.984-122.9-484.02m-482.195,835.657q-117.151,136.234-317.588,136.137-196.695,0-319.563-143.65-122.938-143.748-122.9-340.368,0-211.791,119.138-359.247,119.043-147.5,323.322-147.5,196.633,0,315.712,145.624,119.179,145.553,119.138,361.125,0,211.79-117.262,347.881" transform="translate(5120.659 978.935)" fill="#2c2d49"/>
          </g>
        </g>
      </g>
    </g>
  </g>
</svg>
